<?xml version="1.0" standalone="no"?>
<!DOCTYPE svg PUBLIC "-//W3C//DTD SVG 20010904//EN"
 "http://www.w3.org/TR/2001/REC-SVG-20010904/DTD/svg10.dtd">
<svg version="1.0" xmlns="http://www.w3.org/2000/svg"
 width="240.000000pt" height="240.000000pt" viewBox="0 0 240.000000 240.000000"
 preserveAspectRatio="xMidYMid meet">

<g transform="translate(0.000000,240.000000) scale(0.100000,-0.100000)"
fill="#000000" stroke="none">
<path d="M872 2089 c-194 -21 -271 -50 -325 -121 -81 -106 -376 -643 -413
-753 -21 -62 -28 -105 -32 -192 -5 -129 10 -217 64 -357 31 -81 34 -97 34
-198 0 -108 0 -110 29 -139 29 -29 31 -29 146 -29 115 0 117 0 146 29 27 27
29 35 29 100 l0 71 650 0 650 0 0 -71 c0 -65 2 -73 29 -100 29 -29 31 -29 146
-29 115 0 117 0 146 29 29 29 29 31 29 139 0 101 3 117 34 198 54 140 69 228
64 357 -4 87 -11 130 -32 192 -42 122 -350 679 -424 765 -75 89 -190 111 -597
115 -159 2 -328 -1 -373 -6z m528 -189 c69 -5 159 -14 200 -21 68 -11 79 -16
116 -54 37 -38 183 -309 172 -320 -2 -2 -62 -12 -133 -22 -189 -25 -921 -25
-1110 0 -71 10 -131 20 -133 22 -11 11 135 282 172 320 38 39 47 43 121 55
172 27 396 35 595 20z m-903 -711 c67 -25 111 -99 98 -165 -8 -45 -57 -100
-101 -114 -100 -33 -209 62 -190 165 12 62 82 124 143 125 12 0 34 -5 50 -11z
m1500 0 c67 -25 111 -99 98 -165 -8 -45 -57 -100 -101 -114 -100 -33 -209 62
-190 165 12 62 82 124 143 125 12 0 34 -5 50 -11z m-415 -206 c22 -20 23 -41
1 -65 -15 -17 -40 -18 -381 -18 -326 0 -367 2 -384 17 -22 20 -23 41 -1 65 15
17 40 18 381 18 326 0 367 -2 384 -17z"/>
<path d="M12 1688 c-7 -7 -12 -37 -12 -68 0 -46 4 -61 22 -78 29 -26 70 -42
111 -42 30 0 35 6 85 100 l53 100 -123 0 c-83 0 -128 -4 -136 -12z"/>
<path d="M2182 1600 c50 -94 55 -100 85 -100 41 0 82 16 111 42 18 17 22 32
22 78 0 31 -5 61 -12 68 -8 8 -53 12 -136 12 l-123 0 53 -100z"/>
</g>
</svg>
